<?xml version='1.0' encoding='utf-8'?>
<svg width="107.137037mm" height="107.137037mm" viewBox="-53.568519 -53.568519 107.137037 107.137037" version="1.1" xmlns="http://www.w3.org/2000/svg">
  <g transform="scale(1,-1)" stroke-linecap="round">
    <g fill="rgb(74,74,74)" stroke="rgb(74,74,74)" stroke-width="0.09" id="octagon">
      <path d="M 48.518519,20.097028 L 20.097028,48.518519 L -20.097028,48.518519 L -48.518519,20.097028 L -48.518519,-20.097028 L -20.097028,-48.518519 L 20.097028,-48.518519 L 48.518519,-20.097028 L 48.518519,20.097028" />
    </g>
    <g fill="rgb(255,255,255)" stroke="rgb(255,255,255)" stroke-width="0.09" id="recess">
      <circle cx="0.0" cy="0.0" r="37.5" />
    </g>
    <g fill="rgb(74,74,74)" stroke="rgb(74,74,74)" stroke-width="0.09" id="a">
      <path d="M -11.589948,-2.75 L -21.9375,-2.75 L -29.25,-19.0 L -19.89,-19.0 L -11.589948,-2.75" />
      <path d="M -0.0,19.941019 L 19.89,-19.0 L 29.25,-19.0 L 7.3125,29.75 L -7.3125,29.75 L -16.965,8.3 L -26.715,8.3 L -30.81,-0.8 L 2.86,-0.8 L -1.235,8.3 L -5.945912,8.3 L 0.0,19.941019" />
    </g>
    <g id="chamfer">
      <path fill="none" stroke="rgb(90,90,90)" stroke-width="0.5" d="M 46.666667,19.329966 L 19.329966,46.666667 L -19.329966,46.666667 L -46.666667,19.329966 L -46.666667,-19.329966 L -19.329966,-46.666667 L 19.329966,-46.666667 L 46.666667,-19.329966 Z" />
    </g>
  </g>
</svg>