<?xml version='1.0' encoding='utf-8'?>
<svg width="110.1mm" height="110.1mm" viewBox="-55.05 -55.05 110.1 110.1" version="1.1" xmlns="http://www.w3.org/2000/svg">
  <g transform="scale(1,-1)" stroke-linecap="round">
    <g fill="rgb(74,74,74)" stroke="rgb(74,74,74)" stroke-width="0.09" id="octagon">
      <path d="M 50.0,20.710678 L 20.710678,50.0 L -20.710678,50.0 L -50.0,20.710678 L -50.0,-20.710678 L -20.710678,-50.0 L 20.710678,-50.0 L 50.0,-20.710678 L 50.0,20.710678" />
    </g>
    <g fill="rgb(255,255,255)" stroke="rgb(255,255,255)" stroke-width="0.09" id="recess">
      <path d="M -42.5,0.0 A 42.5,42.5 180.0 0,1 42.5,-0.0 A 42.5,42.5 180.0 0,1 -42.5,0.0 M -29.25,-19.0 L -21.9375,-2.75 L -11.589948,-2.75 L -19.89,-19.0 L -29.25,-19.0 M 29.25,-19.0 L 19.89,-19.0 L -0.0,19.941019 L -5.945912,8.3 L -1.235,8.3 L 2.86,-0.8 L -30.81,-0.8 L -26.715,8.3 L -16.965,8.3 L -7.3125,29.75 L 7.3125,29.75 L 29.25,-19.0" />
    </g>
    <g fill="rgb(74,74,74)" stroke="rgb(74,74,74)" stroke-width="0.09" id="a">
      <path d="M -11.589948,-2.75 L -21.9375,-2.75 L -29.25,-19.0 L -19.89,-19.0 L -11.589948,-2.75" />
      <path d="M -0.0,19.941019 L 19.89,-19.0 L 29.25,-19.0 L 7.3125,29.75 L -7.3125,29.75 L -16.965,8.3 L -26.715,8.3 L -30.81,-0.8 L 2.86,-0.8 L -1.235,8.3 L -5.945912,8.3 L 0.0,19.941019" />
    </g>
    <g id="chamfer">
      <path fill="none" stroke="rgb(90,90,90)" stroke-width="0.5" d="M 46.700000,19.343773 L 19.343773,46.700000 L -19.343773,46.700000 L -46.700000,19.343773 L -46.700000,-19.343773 L -19.343773,-46.700000 L 19.343773,-46.700000 L 46.700000,-19.343773 Z" />
    </g>
  </g>
</svg>